<svg width="91" height="31" viewBox="0 0 91 31" fill="none" xmlns="http://www.w3.org/2000/svg">
<path d="M28.4709 7.59722C29.263 6.41374 30.3132 5.48511 31.5081 4.71847C31.599 4.66002 31.6965 4.61006 31.7922 4.5616C32.1963 4.35769 32.6219 4.20946 32.9959 4.57197C33.3412 4.90627 33.2053 5.32295 33.0677 5.7117C33.0048 5.88987 32.9204 6.05996 32.8455 6.23415C32.4913 7.09556 31.9293 7.82007 31.3279 8.51747C30.4422 9.54395 29.4417 10.452 28.3916 11.3039C27.9214 11.6854 27.8082 11.6215 27.7048 10.9936C27.5012 9.75654 27.7845 8.62201 28.4709 7.59722ZM12.6432 23.9601C17.4141 21.2389 22.2861 18.6865 26.7534 15.4628C27.2614 15.0962 27.2975 15.0966 27.7169 15.6572C29.6032 18.1792 32.1283 19.7925 35.079 20.7535C38.376 21.8271 41.7319 22.6922 45.1609 23.2369C48.9829 23.8439 52.8214 23.8156 56.6621 23.4575C60.9162 23.0614 65.0687 22.1913 69.0556 20.6401C73.8264 18.7852 78.1063 16.1376 81.7918 12.5658C85.1158 9.34429 88.088 5.86166 89.9392 1.55046C90.0243 1.35234 90.1487 1.17107 90.2463 0.9783C90.3465 0.782107 90.4575 0.55543 90.236 0.392258C89.9751 0.199638 89.7691 0.39913 89.6152 0.585822C89.3933 0.856702 89.1912 1.14744 89.002 1.44257C88.3454 2.46657 87.7526 3.53729 87.0365 4.51758C84.3696 8.16881 81.1859 11.3225 77.5727 14.0342C74.9621 15.9942 72.1017 17.5294 69.0656 18.7238C65.2358 20.2314 61.2507 21.0974 57.1601 21.4906C53.3759 21.8544 49.593 21.9195 45.8175 21.3708C43.052 20.9689 40.3591 20.2479 37.6728 19.5007C36.1042 19.0645 34.5833 18.4906 33.1321 17.7519C31.5609 16.9521 30.2788 15.7987 29.244 14.3762C28.8633 13.8524 28.8692 13.8016 29.3652 13.3785C30.2716 12.6049 31.1519 11.805 31.978 10.9464C33.0158 9.86966 33.9419 8.71203 34.5883 7.35027C34.9527 6.58394 35.2111 5.79246 35.1464 4.92908C35.0239 3.30272 33.648 2.22517 32.0456 2.50382C31.6176 2.57844 31.2101 2.71628 30.8248 2.92939C29.5317 3.64708 28.4319 4.59631 27.4652 5.70819C25.7441 7.68638 25.2435 9.93129 26.0233 12.4358C26.1695 12.9034 26.1112 13.2134 25.6943 13.4603C25.5556 13.5428 25.4297 13.6484 25.2974 13.7425C22.6469 15.6289 19.8232 17.2318 16.9928 18.8266C13.6219 20.7264 10.29 22.6962 6.79325 24.3661C5.85074 24.8172 4.88733 25.2139 3.87276 25.5898C3.80313 25.1789 4.0233 24.9912 4.16249 24.7755C5.01066 23.4562 5.85446 22.134 6.71821 20.8259C6.88644 20.5717 6.99074 20.3421 6.77251 20.0976C6.54279 19.8401 6.24459 19.8503 5.95437 19.9977C5.66046 20.1458 5.4293 20.3776 5.20292 20.6114C4.24086 21.6017 3.33502 22.6433 2.50808 23.7495C1.74566 24.7688 1.08528 25.857 0.550746 27.0139C0.250584 27.665 0.353285 28.1547 0.807869 28.5621C1.01478 28.7485 1.26061 28.8496 1.527 28.9187C4.0523 29.5706 6.6374 29.8536 9.21907 30.1499C9.4287 30.1742 9.65573 30.1527 9.86132 30.0993C10.3875 29.9626 10.7268 29.487 10.7131 28.9539C10.6944 28.2475 10.1831 27.7319 9.45807 27.7639C8.28882 27.816 7.1591 27.5279 5.90972 27.4865C6.07673 27.2113 6.21456 27.181 6.33625 27.1301C8.50893 26.2133 10.5974 25.1253 12.6432 23.9601Z" fill="url(#paint0_linear_22_22)"/>
<defs>
<linearGradient id="paint0_linear_22_22" x1="-20.9826" y1="25.6903" x2="121.946" y2="55.3098" gradientUnits="userSpaceOnUse">
<stop stop-color="#013F00"/>
<stop offset="0.509544" stop-color="#48D911"/>
<stop offset="1" stop-color="#5AFF15"/>
</linearGradient>
</defs>
</svg>
